<svg xmlns="http://www.w3.org/2000/svg" viewBox="0 0 512 512" width="512" height="512">
  <defs>
    <linearGradient id="bg" x1="0" y1="0" x2="1" y2="1">
      <stop offset="0" stop-color="#8f77ec"/>
      <stop offset="1" stop-color="#4a2fb0"/>
    </linearGradient>
  </defs>
  <rect width="512" height="512" rx="112" fill="url(#bg)"/>

  <!-- floating learning symbols -->
  <text x="86" y="132" font-family="system-ui, sans-serif" font-size="70" font-weight="900" fill="#ffcc29">2</text>
  <text x="386" y="140" font-family="system-ui, sans-serif" font-size="66" font-weight="900" fill="#35d0e8">A</text>
  <circle cx="420" cy="330" r="26" fill="#ff4f81"/>
  <polygon points="92,336 130,336 111,300" fill="#3ecf6d"/>

  <!-- mascot -->
  <g transform="translate(256 300) scale(2.05) translate(-52 -60)">
    <line x1="26" y1="26" x2="14" y2="8" stroke="#2a1a5e" stroke-width="5" stroke-linecap="round"/>
    <line x1="78" y1="26" x2="90" y2="8" stroke="#2a1a5e" stroke-width="5" stroke-linecap="round"/>
    <circle cx="14" cy="8" r="7" fill="#ff4f81"/>
    <circle cx="90" cy="8" r="7" fill="#35d0e8"/>
    <rect x="22" y="86" width="60" height="30" rx="14" fill="#ffcc29" stroke="#0f2b3d" stroke-width="3"/>
    <circle cx="52" cy="101" r="6" fill="#fff" stroke="#0f2b3d" stroke-width="2.5"/>
    <rect x="12" y="20" width="80" height="72" rx="30" fill="#ffffff" stroke="#0f2b3d" stroke-width="3.5"/>
    <rect x="22" y="36" width="60" height="34" rx="17" fill="#c9f4ff" stroke="#0f2b3d" stroke-width="3"/>
    <circle cx="40" cy="52" r="8" fill="#0f2b3d"/>
    <circle cx="64" cy="52" r="8" fill="#0f2b3d"/>
    <circle cx="37" cy="49" r="2.6" fill="#fff"/>
    <circle cx="61" cy="49" r="2.6" fill="#fff"/>
    <circle cx="24" cy="72" r="6" fill="#ffb3c9"/>
    <circle cx="80" cy="72" r="6" fill="#ffb3c9"/>
    <path d="M38,68 q14,16 28,0 z" fill="#ff4f81" stroke="#0f2b3d" stroke-width="3" stroke-linejoin="round"/>
  </g>
</svg>
